inDegrees=no
num_controls=7
num_derivatives=13
num_iterations=136
num_multipliers=7
num_parameters=0
num_slacks=7
num_states=26
objective=4.424576
objective_accelerations=0.105237
objective_balance=0.027316
objective_effort=0.207320
objective_height=4.013049
objective_ligament=0.071654
solver_duration=1403.357443
status=Solve_Succeeded
success=true
DataType=double
version=3
OpenSimVersion=4.4-2022-07-23-0e9fedc
endheader
time	/jointset/ground_pelvis/pelvis_tilt/value	/jointset/ground_pelvis/pelvis_tx/value	/jointset/ground_pelvis/pelvis_ty/value	/jointset/hip_l/hip_flexion_l/value	/jointset/hip_l/hip_adduction_l/value	/jointset/hip_l/hip_rotation_l/value	/jointset/back/lumbar_extension/value	/jointset/patellofemoral_l/patellar_flexion_l/value	/jointset/knee_l/knee_flexion_l/value	/jointset/knee_l/knee_adduction_l/value	/jointset/knee_l/knee_rotation_l/value	/jointset/ankle_l/ankle_angle_l/value	/jointset/subtalar_l/subtalar_angle_l/value	/jointset/ground_pelvis/pelvis_tilt/speed	/jointset/ground_pelvis/pelvis_tx/speed	/jointset/ground_pelvis/pelvis_ty/speed	/jointset/hip_l/hip_flexion_l/speed	/jointset/hip_l/hip_adduction_l/speed	/jointset/hip_l/hip_rotation_l/speed	/jointset/back/lumbar_extension/speed	/jointset/patellofemoral_l/patellar_flexion_l/speed	/jointset/knee_l/knee_flexion_l/speed	/jointset/knee_l/knee_adduction_l/speed	/jointset/knee_l/knee_rotation_l/speed	/jointset/ankle_l/ankle_angle_l/speed	/jointset/subtalar_l/subtalar_angle_l/speed	/forceset/tau_hip_flexion_l	/forceset/tau_hip_adduction_l	/forceset/tau_hip_rotation_l	/forceset/tau_knee_flexion_l	/forceset/tau_ankle_angle_l	/forceset/tau_subtalar_angle_l	/forceset/tau_lumbar_extension	lambda_cid13_p0	lambda_cid13_p1	lambda_cid13_p2	lambda_cid13_p3	lambda_cid13_p4	lambda_cid13_p5	lambda_cid14_p0	/jointset/ground_pelvis/pelvis_tilt/accel	/jointset/ground_pelvis/pelvis_tx/accel	/jointset/ground_pelvis/pelvis_ty/accel	/jointset/hip_l/hip_flexion_l/accel	/jointset/hip_l/hip_adduction_l/accel	/jointset/hip_l/hip_rotation_l/accel	/jointset/back/lumbar_extension/accel	/jointset/patellofemoral_l/patellar_flexion_l/accel	/jointset/knee_l/knee_flexion_l/accel	/jointset/knee_l/knee_adduction_l/accel	/jointset/knee_l/knee_rotation_l/accel	/jointset/ankle_l/ankle_angle_l/accel	/jointset/subtalar_l/subtalar_angle_l/accel	gamma_cid13_p0	gamma_cid13_p1	gamma_cid13_p2	gamma_cid13_p3	gamma_cid13_p4	gamma_cid13_p5	gamma_cid14_p0
0.5	0.0687014273320206	0.02698853957081805	0.9031275731899645	0.3808086013289045	-0.3176200061557589	-0.2114052620649781	-0.7322743386950573	0.5073794942750058	0.507379494275001	-0.1492496630828176	-0.174532636069197	0.09497163653230421	0.009397221648122813	0.309627802212907	-0.05268081050271899	-0.05660448549610885	0.1181205168155562	-0.04639074327285397	0.2244377629360132	-0.8539302429522315	0.663227658872096	0.6632276588721048	0.05817744769971758	4.727317229116203e-07	0.2803669104228649	0.04579076428574731	-0.1366077302434766	0.02694426739703327	-0.002637351793573956	-0.1785785755469695	0.04585843256191405	0.03825016804964363	0.2418052894591483	-30.21564692178508	-14.61839423224176	5.642102505959202	0.1070119350495389	-706.9935692744421	-82.11560435714703	-22.90808208205235	-0.0320169744180012	0.1888653034906969	0.005641020702236262	-0.5941364505764647	0.09615564334341399	-0.2645910753527783	0.922927139418782	-0.6728779508896406	-0.6728779508896395	-0.08695731078908385	0.00513895083388903	-0.07461520266526277	0.0871797079456938	7.919461974546537e-09	-5.853735606039128e-08	-1.491756224536444e-08	-1.88178615710795e-08	1.487837997065028e-08	-1.164526604518652e-08	-3.641174650972953e-09
0.51	0.07179554009076655	0.02647123216055492	0.9025619151838097	0.3819601189286608	-0.3180790912583578	-0.2091746633816226	-0.7407661818919685	0.5139772997396536	0.5139772997397017	-0.1486722063544295	-0.174532641311242	0.0977711940760831	0.009859387350549946	0.3091589561351119	-0.05077402042901955	-0.056512190931414	0.1121500674128607	-0.04542255631198416	0.2216484481197971	-0.8443285859617176	0.6562314288080798	0.6562314288080809	0.05730806534950739	-1.738788083517626e-06	0.2795036622824546	0.04663342624253736	-0.1386054761270226	0.02784938009285269	-0.002587009044545399	-0.1795844288685308	0.04389419708388603	0.03853768558055738	0.2449017006737297	-30.89216714186115	-14.63023397301095	5.650186315921814	0.2985563576597171	-708.1564700307163	-82.02404384195945	-22.80848853849139	-0.05968732483437383	0.1925797514858866	0.01326559593463971	-0.6034387871205316	0.09771761061543162	-0.2911319771416151	0.9952565491175338	-0.7282956842056192	-0.7282956842067894	-0.0878137658889203	-0.00293628046561466	-0.09832052357772955	0.08147758428760542	9.376839380273503e-09	-5.224757229747125e-08	-2.041557951132577e-08	-1.911987719021667e-08	1.781872249717569e-08	-6.01905585189619e-09	-2.491533328130258e-09
0.52	0.07488389060865998	0.02597319142946402	0.9019976285076179	0.3830509441139868	-0.3185283810137168	-0.2069729639049052	-0.7491587142049254	0.5205020828736557	0.5205020828737492	-0.1481036204632992	-0.17453267568389	0.1005608909576884	0.0103297133014934	0.3084753540423503	-0.0488274746682729	-0.05633021950346637	0.1059820339299849	-0.04443167382484946	0.2186579216081586	-0.8340680661612108	0.648623192742143	0.6486231927421362	0.05640328024922141	-5.353390998218601e-06	0.2783947779880918	0.04742281398900584	-0.1406032220105828	0.02875449278867823	-0.002536666295571728	-0.1805902821900917	0.04192996160585988	0.03882520311147941	0.2479981118882985	-31.57280517213582	-14.64165460736215	5.658548225754625	0.4864060182564298	-709.3897331183389	-81.94228122336119	-22.70493222068989	-0.07496817741127888	0.1968164409001416	0.02357639335279654	-0.6336532666125135	0.1006947485963995	-0.3048334144372354	1.054699701417336	-0.7952791512737729	-0.7952791512737722	-0.0940378608042394	0.004858334212264895	-0.1237424334557585	0.07652486588138806	1.127322470576338e-08	-4.49150389325457e-08	-2.749609383982471e-08	-1.960488217158262e-08	2.148258790799003e-08	1.067305426579246e-09	-1.086033738438819e-09
0.53	0.07796432373891291	0.02549479894626933	0.9014356053859304	0.384079197902267	-0.3189676361578102	-0.2048021490065729	-0.7574454014003268	0.5269478296302935	0.5269478296303028	-0.1475441916651885	-0.1745327414311482	0.1033383061302694	0.01080769192285126	0.3075768693085852	-0.04684585987814142	-0.05605920480311723	0.0996385963995739	-0.04341640790475784	0.215474181039937	-0.8231674595220237	0.6404285795953775	0.6404285795953746	0.05547686418059833	-7.20039186071782e-06	0.2770478037597787	0.04816314618179553	-0.1424702787647185	0.02967802688126144	-0.002498855623206332	-0.1816365415465839	0.04004343539524027	0.03902433246802152	0.250968849230199	-32.22692996990248	-14.61697737968194	5.658467207870105	0.6791892319928445	-710.5359064829054	-81.79739700170909	-22.59756472329695	-0.1024488833930939	0.1996043400271869	0.03114869442662597	-0.6392071780208989	0.102394303241261	-0.3297745815922573	1.123028154726865	-0.8461891753504329	-0.8461891753498655	-0.09279467378056093	-0.002622049620715537	-0.1462428300432584	0.07133272444041125	1.260314365150145e-08	-3.840494947273348e-08	-3.267642705814615e-08	-1.971719181351771e-08	2.4038330284415e-08	6.664295399093049e-09	3.939228017263593e-11
